# xmcd
#
# Track frame offsets:
#	150
#	13744
#	29122
#	43448
#	58754
#	71710
#	82474
#	94987
#	107615
#	120124
#
# Disc length: 1812 seconds
#
# Revision: 0
# Processed by: cddbd v1.4PL0 Copyright (c) Steve Scherf et al.
# Submitted via: dBpowerAMP V4.0
#
DISCID=9207120a
DTITLE=Dustin Sanchez - It's About Time
DYEAR=2000
DGENRE=Country
TTITLE0=Better Hang on Girl
TTITLE1=Faith Ain't Faith
TTITLE2=It's About Time (It's About Love)
TTITLE3=She Only Had One Heart
TTITLE4=Savin' It Up For Saturday Night
TTITLE5=Down,  Down, Down
TTITLE6=Linda On My Mind
TTITLE7=Hollywood Squares
TTITLE8=In The Ghetto
TTITLE9=Millenium Cowboy
EXTD=
EXTT0=
EXTT1=
EXTT2=
EXTT3=
EXTT4=
EXTT5=
EXTT6=
EXTT7=
EXTT8=
EXTT9=
PLAYORDER=
